# xmcd CD database file
#
# Track frame offsets:
#	150
#	9675
#	22462
#	35612
#	47637
#	60362
#	74662
#	87050
#	97725
#	111100
#	124487
#	137337
#	147912
#	160012
#	170162
#	181437
#	193675
#	206062
#	217812
#	231900
#	246587
#	259750
#
# Disc length: 3670 seconds
#
# Revision: 1
# Processed by: cddbd v1.4PL0 Copyright (c) Steve Scherf et al.
# Submitted via: CDex 1.40Release
#
DISCID=460e5416
DTITLE=Lynn Anderson - Anthology, The Columbia Years
DYEAR=1999
DGENRE=Country
TTITLE0=Stay There 'Til I Get There
TTITLE1=No Love At All
TTITLE2=Rose Garden
TTITLE3=You're My Man
TTITLE4=How Can I Unlove You
TTITLE5=Cry
TTITLE6=Listen To A Country Song
TTITLE7=Fool Me
TTITLE8=Keep Me In Mind
TTITLE9=Top Of The World
TTITLE10=Smile For Me
TTITLE11=Sing About Love
TTITLE12=Talkin' To The Wall
TTITLE13=What A Man, My Man Is
TTITLE14=He Turns It Into Love Again
TTITLE15=I've Never Loved Anyone More
TTITLE16=All The King's Horses
TTITLE17=Wrap Your Love All Around Your Man
TTITLE18=He Ain't You
TTITLE19=I Love How You Love Me
TTITLE20=Isn't It Always Love
TTITLE21=Sea Of Heartbreak
EXTD=YEAR: 1999 ID3G: 2
EXTT0=
EXTT1=
EXTT2=
EXTT3=
EXTT4=
EXTT5=
EXTT6=
EXTT7=
EXTT8=
EXTT9=
EXTT10=
EXTT11=
EXTT12=
EXTT13=
EXTT14=
EXTT15=
EXTT16=
EXTT17=
EXTT18=
EXTT19=
EXTT20=
EXTT21=
PLAYORDER=
